<svg xmlns="http://www.w3.org/2000/svg" viewBox="0 0 566.93 56.69"><defs><style>.cls-1{fill:#3c3c3b}</style></defs><g id="Layer_2" data-name="Layer 2"><g id="Lager_1" data-name="Lager 1"><path class="cls-1" d="M31.14 32.18c-2.18-.5-2.87-.6-2.48-1.29 5.07-1.79 8-4.47 8-8.73 0-4.67-2.69-7.35-6.26-8.74s-7.74-1.49-12.61-1.49c-5.76 0-11.62.2-16.58.6-.89.3-1 2.18-.1 2.48l3.08.4c2.78.39 2.88 2 2.88 8.43v21c0 6.85-.4 7.25-4.67 7.94l-1.89.3c-.69.5-.59 2.18.2 2.48 3.88-.2 7.25-.3 10.43-.3 3.57 0 6.85.3 8.84.3 4.66 0 9.73-.5 13.5-2.28S40 48.36 40 43a11 11 0 0 0-8.86-10.82zM14.56 17.49c0-1.79.2-2.68 4.37-2.68 5.07 0 9.53 2.28 9.53 8.24 0 6.25-4.27 7.74-10.52 7.74-3.18 0-3.38-.1-3.38-1.69zM22 52.72c-6.16 0-7.45-1.78-7.45-7.74v-9.62c0-1.3.2-1.69 4.67-1.69 6.45 0 12.41 2.38 12.41 10.22.01 6.55-4.63 8.83-9.63 8.83zM72.54 10.84C58.14 10.84 48 21 48 34.16c0 12.51 9.13 22.53 24.52 22.53 14 0 24.13-9.72 24.13-23.12.02-12.11-8.12-22.73-24.11-22.73zm.5 43c-11.52 0-16.19-11-16.19-21.23 0-14 7.85-18.86 15-18.86 10.92 0 16 10.72 16 21.34-.02 13.56-7.27 18.72-14.85 18.72zM143.61 51.83C140.34 49.15 136 44.29 131 36a1.19 1.19 0 0 1 0-1.49c3.87-1.39 8.83-4.27 8.83-10.62 0-10.42-10-11.91-19.26-11.91-5.46 0-11 .2-16.48.6-1 .3-.8 2.38 0 2.48l2.78.4c2.28.29 2.38 2 2.38 8.43v21c0 6.85-.4 7-4.67 7.94l-1.48.3a1.44 1.44 0 0 0 .19 2.48c3.48-.2 6.56-.3 9.73-.3s6.36.1 10.53.3c.79-.3.89-2 .2-2.48l-2.29-.3c-4.27-.59-4.66-1.09-4.66-7.94v-7c0-1.39.2-1.59 2.78-1.59 1.59 0 3.17.4 4 1.59 2.08 3.17 4.76 7.54 7.25 10.71 4.37 5.56 7.94 7.45 13.9 7.45a13.87 13.87 0 0 0 4.17-.5 1.22 1.22 0 0 0 0-1.59 8.93 8.93 0 0 1-5.29-2.13zm-21.84-18.26c-4.86 0-5 0-5-2.48v-13.5c0-2.58.69-2.78 4.37-2.78 6.95 0 10.42 4.37 10.42 9.33.04 6.86-3.33 9.43-9.79 9.43zM225.34 31.48l-6.15-3.17c-4-2.09-6.66-4.27-6.66-7.84 0-3.38 2.19-6.75 8.05-6.75s8.43 5.06 9.23 8.53c.5.7 2.28.6 2.58-.19.1-4.27-.6-8-1.39-9.73-3.38-.6-5.76-1.49-9.23-1.49-10 0-15.59 5.06-15.59 12.31 0 5.56 4.07 9.43 8.84 11.91l4.46 2.28c5.66 2.88 7 6.15 7 9.33 0 4.56-3.27 7.14-8.34 7.14-6.65 0-11-7-11.81-10.61a1.53 1.53 0 0 0-2.58.19c0 5.26 1.19 8.84 2.08 10.23a20.4 20.4 0 0 0 11.42 3.07c9.83 0 16.18-4.86 16.18-12.6a14.16 14.16 0 0 0-8.09-12.61zM281.84 12a32.64 32.64 0 0 1-4.8.23h-27.6a64.64 64.64 0 0 1-7.72-.22c-.5 2.48-1.12 5.78-2.21 10a1.71 1.71 0 0 0 2.48.49c2.39-6.85 5-7.44 11-7.44h3.07c2 0 2.09 0 2.09 2.58v27.24c0 6.85-.4 7.45-4.67 7.94l-2.68.3c-.69.5-.59 2.18.2 2.48 4.17-.2 7.74-.3 10.92-.3s6.85.1 10.92.3c.8-.3.9-2 .2-2.48l-2.68-.3c-4.27-.49-4.67-1.09-4.67-7.94V17.69c0-2.58.3-2.58 2.19-2.58h3.37c6 0 8.54.79 9.24 7.24.39.8 2.08.7 2.48-.1-.33-4.2-.97-7.56-1.13-10.25zM364.17 13.62a34.59 34.59 0 0 0-11.92-1.69c-5.26 0-10.32.2-15.88.6-.9.3-1 2.18-.1 2.48l3 .5c2.28.39 2.38 1.88 2.38 8.33v21c0 6.85-.4 7-4.67 7.94l-1.49.3c-.69.5-.59 2.18.2 2.48 3.48-.2 6.55-.3 9.73-.3s6.36.1 10.53.3c.79-.3.89-2 .19-2.48l-2.28-.3c-4.27-.59-4.67-1.09-4.67-7.94V18.19c0-2.78 0-3.38 4.08-3.38 6.75 0 10.82 3.57 10.82 10.12 0 6.36-3.08 10-9.24 11.32a1.37 1.37 0 0 0 .1 1.78 24.47 24.47 0 0 0 9-1.48c3.67-1.29 8.24-4.47 8.24-11.32a12 12 0 0 0-8.02-11.61zM415.93 44.19c-2.88 7.94-6.55 8.24-12.9 8.24-5.66 0-7.45-.4-8.34-1.39s-1.1-4.17-1.1-7.15v-7.15c0-2 0-2.28 1.89-2.28h4.67c5.26 0 5.76.8 6.55 3.77l.5 1.89a1.67 1.67 0 0 0 2.48-.2c-.2-2.88-.2-4.66-.2-7.15 0-2.28 0-4.06.2-6.94a1.66 1.66 0 0 0-2.48-.2l-.5 1.88c-.79 3-1.29 3.78-6.55 3.78h-4.67c-1.89 0-1.89-.2-1.89-2v-11c0-3.07.1-3.17 3.58-3.17h4.37c2.38 0 6.85 0 8.44 2.38a13.87 13.87 0 0 1 1.78 4.76 1.78 1.78 0 0 0 2.59-.19c-.5-4.27-1-8.94-1.1-10.13a83.69 83.69 0 0 1-9.23.3h-14.1c-1.59 0-3.18 0-4.77-.1s-3-.1-4.46-.2c-.8.4-.9 2.09-.2 2.48l1.39.3c3.77.8 4.17 1.09 4.17 7.94v22.22c0 6.85-.4 7.45-4.67 7.94l-2.68.3c-.69.5-.59 2.18.2 2.48 4.77-.2 7.84-.3 11-.3h8.74c2.68 0 5.36 0 8.14.1s5.66.1 8.74.2c1.09-1.88 2.48-6.85 3-11-.3-.91-1.89-1.11-2.59-.41zM511.07 44.19c-2.88 7.94-6.55 8.24-12.91 8.24-5.66 0-7.44-.4-8.34-1.39s-1.09-4.17-1.09-7.15v-7.15c0-2 0-2.28 1.89-2.28h4.66c5.27 0 5.76.8 6.56 3.77l.49 1.89a1.69 1.69 0 0 0 2.49-.2c-.2-2.88-.2-4.66-.2-7.15 0-2.28 0-4.06.2-6.94a1.67 1.67 0 0 0-2.49-.2l-.49 1.88c-.8 3-1.29 3.78-6.56 3.78h-4.66c-1.89 0-1.89-.2-1.89-2v-11c0-3.07.1-3.17 3.58-3.17h4.36c2.39 0 6.86 0 8.44 2.38a13.62 13.62 0 0 1 1.79 4.76 1.77 1.77 0 0 0 2.58-.19c-.49-4.27-1-8.94-1.09-10.13a83.69 83.69 0 0 1-9.23.3h-14.1c-1.59 0-3.18 0-4.77-.1s-3-.1-4.47-.2c-.79.4-.89 2.09-.19 2.48l1.39.3c3.77.8 4.17 1.09 4.17 7.94v22.22c0 6.85-.4 7.45-4.67 7.94l-2.68.3c-.7.5-.6 2.18.2 2.48 4.76-.2 7.84-.3 11-.3h8.74c2.68 0 5.36 0 8.14.1s5.66.1 8.73.2c1.1-1.88 2.49-6.85 3-11-.29-.91-1.88-1.11-2.58-.41zM566.63 53.91a8.91 8.91 0 0 1-5.26-2.08c-3.28-2.68-7.65-7.54-12.61-15.88a1.19 1.19 0 0 1 0-1.49c3.87-1.39 8.84-4.27 8.84-10.62 0-10.42-10-11.91-19.27-11.91-5.46 0-11 .2-16.48.6-1 .3-.79 2.38 0 2.48l2.78.4c2.29.29 2.39 2 2.39 8.43v21c0 6.85-.4 7-4.67 7.94l-1.49.3a1.45 1.45 0 0 0 .2 2.48c3.47-.2 6.55-.3 9.73-.3s6.35.1 10.52.3c.8-.3.9-2 .2-2.48l-2.28-.3c-4.27-.59-4.67-1.09-4.67-7.94v-7c0-1.39.2-1.59 2.78-1.59 1.59 0 3.18.4 4 1.59 2.09 3.17 4.77 7.54 7.25 10.71 4.37 5.56 7.94 7.45 13.9 7.45a13.77 13.77 0 0 0 4.17-.5 1.2 1.2 0 0 0-.03-1.59zm-27.1-20.34c-4.87 0-5 0-5-2.48v-13.5c0-2.58.7-2.78 4.37-2.78 7 0 10.43 4.37 10.43 9.33.03 6.86-3.33 9.43-9.8 9.43zM198.32 53.11l-1.58-.29c-3.57-.7-4.47-2-5.65-5.26l-8.93-23.68c-1.61-4.27-2.76-7.79-3.45-9.84a7.33 7.33 0 0 0 4.47-6.69 7.76 7.76 0 0 0-15.49 0 7.35 7.35 0 0 0 4.65 6.77c0 .08 0 .16-.06.26a42.43 42.43 0 0 1-2.7 8.91l-9.52 22.79c-2 4.76-3.08 5.84-6.15 6.54l-2.28.49a1.59 1.59 0 0 0 .2 2.48c1.78-.1 4.16-.3 6.94-.3s5.35.1 7.83.3c1-.2 1.09-2 .3-2.48l-2.68-.49c-1.88-.4-2.18-.8-1.09-4l2.28-6.34c.79-2.28 1.09-2.38 3.37-2.38h9.42c2.28 0 2.58.1 3.37 2.38l2.43 6.47c1.19 3.07 1.29 3.67-1.29 4.07l-2 .29a1.44 1.44 0 0 0 .2 2.48c2.47-.2 5.35-.3 8.92-.3 3.37 0 5.65.1 8.23.3a1.45 1.45 0 0 0 .26-2.48zm-27-45.76c0-2.7 1.78-4.8 4.1-4.8s4.11 2.1 4.11 4.8-1.7 4.8-4.11 4.8-4.09-2.01-4.09-4.8zm5.28 29.41h-6.84c-2.18 0-2.38-.2-1.29-2.87l3.57-8.82a22.09 22.09 0 0 1 1.59-3.37h.2a19.46 19.46 0 0 1 1.48 3.57l3.08 8.42c1.1 2.87.8 3.07-1.78 3.07zM465.78 12a32.64 32.64 0 0 1-4.8.23h-27.6a64.64 64.64 0 0 1-7.72-.22c-.5 2.48-1.11 5.78-2.21 10a1.72 1.72 0 0 0 2.49.49c2.38-6.85 5-7.44 11-7.44H440c2 0 2.09 0 2.09 2.58v27.24c0 6.85-.4 7.45-4.67 7.94l-2.68.3c-.69.5-.59 2.18.2 2.48 4.17-.2 7.74-.3 10.92-.3s6.85.1 10.92.3c.8-.3.9-2 .2-2.48l-2.68-.3c-4.27-.49-4.67-1.09-4.67-7.94V17.69c0-2.58.3-2.58 2.19-2.58h3.37c6 0 8.54.79 9.24 7.24a1.58 1.58 0 0 0 2.48-.1c-.33-4.2-.91-7.56-1.13-10.25zM329.79 53.12l-1.59-.3c-3.57-.69-4.47-2-5.66-5.26l-8.93-23.72c-2.29-6.05-3.88-11.31-4.27-12.3-.2-.6-3.5-.62-3.71 0-.5 1.19-2.95 7.64-4.63 11.71l-9.54 22.82c-2 4.77-3.07 5.86-6.15 6.55l-2.28.5a1.59 1.59 0 0 0 .19 2.48c1.79-.1 4.17-.3 6.95-.3s5.37.1 7.85.3c1-.2 1.09-2 .3-2.48l-2.69-.5c-1.88-.39-2.18-.79-1.09-4l2.29-6.35c.79-2.28 1.09-2.38 3.37-2.38h9.43c2.29 0 2.59.1 3.38 2.38l2.38 6.45c1.19 3.08 1.29 3.68-1.29 4.07l-2 .3a1.44 1.44 0 0 0 .19 2.48c2.49-.2 5.37-.3 8.94-.3 3.38 0 5.66.1 8.24.3a1.45 1.45 0 0 0 .32-2.45zm-22-16.37h-6.85c-2.18 0-2.38-.2-1.29-2.88l3.54-8.87a24.46 24.46 0 0 1 1.59-3.37h.2a18.73 18.73 0 0 1 1.49 3.57l3.08 8.44c1.09 2.91.79 3.11-1.79 3.11z"/></g></g></svg>
